<svg width="1440" height="1354" viewBox="0 0 1440 1354" fill="none" xmlns="http://www.w3.org/2000/svg">
<path d="M-557.482 1359.64C-563.693 1336.87 -583.888 995.431 -487.928 701.611C-401.754 438.222 -157.648 268.872 162.56 420.483C505.655 582.98 786.981 574.973 1006.67 496.027C1223.47 417.858 1354.61 233.825 1410.35 119.223C1531.44 -128.491 1758.58 -5.0614 1714.1 309.532C1692.92 455.922 1603.84 505.053 1444.12 535.782C1277.16 567.902 1024.99 559.555 686.342 660.664C359.771 758.427 0.443381 951.296 -190.683 1170.53C-394.071 1404.03 -504.676 1558.47 -557.482 1359.64Z" fill="url(#paint0_linear_1156_1029)"/>
<defs>
<linearGradient id="paint0_linear_1156_1029" x1="1669.1" y1="954.479" x2="-591.664" y2="490.893" gradientUnits="userSpaceOnUse">
<stop stop-color="#5D50C6"/>
<stop offset="1" stop-color="#F85E9F"/>
</linearGradient>
</defs>
</svg>
